<svg width="16" height="17" viewBox="0 0 16 17" fill="none" xmlns="http://www.w3.org/2000/svg">
<path opacity="0.2" d="M13 6.5V14C13 14.1326 12.9473 14.2598 12.8536 14.3536C12.7598 14.4473 12.6326 14.5 12.5 14.5H11V10C11 9.73478 10.8946 9.48043 10.7071 9.29289C10.5196 9.10536 10.2652 9 10 9H6C5.73478 9 5.48043 9.10536 5.29289 9.29289C5.10536 9.48043 5 9.73478 5 10V14.5H3.5C3.36739 14.5 3.24021 14.4473 3.14645 14.3536C3.05268 14.2598 3 14.1326 3 14V6.5C3 5.70435 3.31607 4.94129 3.87868 4.37868C4.44129 3.81607 5.20435 3.5 6 3.5H10C10.7956 3.5 11.5587 3.81607 12.1213 4.37868C12.6839 4.94129 13 5.70435 13 6.5Z" fill="#B0B0B0"/>
<path d="M10.5 3.03625V2.5C10.5 2.10218 10.342 1.72064 10.0607 1.43934C9.77936 1.15804 9.39782 1 9 1H7C6.60218 1 6.22064 1.15804 5.93934 1.43934C5.65804 1.72064 5.5 2.10218 5.5 2.5V3.03625C4.66755 3.15758 3.90649 3.57422 3.35573 4.21012C2.80498 4.84601 2.50125 5.65875 2.5 6.5V14C2.5 14.2652 2.60536 14.5196 2.79289 14.7071C2.98043 14.8946 3.23478 15 3.5 15H12.5C12.7652 15 13.0196 14.8946 13.2071 14.7071C13.3946 14.5196 13.5 14.2652 13.5 14V6.5C13.4987 5.65875 13.195 4.84601 12.6443 4.21012C12.0935 3.57422 11.3324 3.15758 10.5 3.03625ZM7 2H9C9.13261 2 9.25979 2.05268 9.35355 2.14645C9.44732 2.24021 9.5 2.36739 9.5 2.5V3H6.5V2.5C6.5 2.36739 6.55268 2.24021 6.64645 2.14645C6.74021 2.05268 6.86739 2 7 2ZM10.5 10.5H5.5V10C5.5 9.86739 5.55268 9.74021 5.64645 9.64645C5.74021 9.55268 5.86739 9.5 6 9.5H10C10.1326 9.5 10.2598 9.55268 10.3536 9.64645C10.4473 9.74021 10.5 9.86739 10.5 10V10.5ZM5.5 11.5H8.5V12C8.5 12.1326 8.55268 12.2598 8.64645 12.3536C8.74021 12.4473 8.86739 12.5 9 12.5C9.13261 12.5 9.25979 12.4473 9.35355 12.3536C9.44732 12.2598 9.5 12.1326 9.5 12V11.5H10.5V14H5.5V11.5ZM12.5 14H11.5V10C11.5 9.60218 11.342 9.22064 11.0607 8.93934C10.7794 8.65804 10.3978 8.5 10 8.5H6C5.60218 8.5 5.22064 8.65804 4.93934 8.93934C4.65804 9.22064 4.5 9.60218 4.5 10V14H3.5V6.5C3.5 5.83696 3.76339 5.20107 4.23223 4.73223C4.70107 4.26339 5.33696 4 6 4H10C10.663 4 11.2989 4.26339 11.7678 4.73223C12.2366 5.20107 12.5 5.83696 12.5 6.5V14ZM9.5 6C9.5 6.13261 9.44732 6.25979 9.35355 6.35355C9.25979 6.44732 9.13261 6.5 9 6.5H7C6.86739 6.5 6.74021 6.44732 6.64645 6.35355C6.55268 6.25979 6.5 6.13261 6.5 6C6.5 5.86739 6.55268 5.74021 6.64645 5.64645C6.74021 5.55268 6.86739 5.5 7 5.5H9C9.13261 5.5 9.25979 5.55268 9.35355 5.64645C9.44732 5.74021 9.5 5.86739 9.5 6Z" fill="#B0B0B0"/>
</svg>
