<svg width="21" height="21" viewBox="0 0 21 21" fill="none" xmlns="http://www.w3.org/2000/svg">
<path opacity="0.2" d="M13 4.25V16.75L6.75 10.5L13 4.25Z" fill="#212121"/>
<path d="M13.2391 3.67271C13.1249 3.62534 12.9992 3.61289 12.8779 3.63695C12.7567 3.66101 12.6453 3.72049 12.5578 3.80787L6.30782 10.0579C6.24971 10.1159 6.20361 10.1848 6.17215 10.2607C6.1407 10.3366 6.12451 10.4179 6.12451 10.5001C6.12451 10.5822 6.1407 10.6635 6.17215 10.7394C6.20361 10.8153 6.24971 10.8842 6.30782 10.9422L12.5578 17.1922C12.6452 17.2797 12.7566 17.3394 12.8779 17.3635C12.9992 17.3877 13.125 17.3753 13.2392 17.3279C13.3535 17.2806 13.4512 17.2004 13.5198 17.0975C13.5885 16.9947 13.6251 16.8737 13.625 16.7501V4.25005C13.625 4.12644 13.5883 4.00561 13.5196 3.90285C13.4509 3.80008 13.3533 3.71999 13.2391 3.67271ZM12.375 15.2415L7.6336 10.5001L12.375 5.75865V15.2415Z" fill="#212121"/>
</svg>
