<svg width="21" height="21" viewBox="0 0 21 21" fill="none" xmlns="http://www.w3.org/2000/svg">
<path opacity="0.2" d="M14.25 10.5L8 16.75V4.25L14.25 10.5Z" fill="#212121"/>
<path d="M14.6922 10.0578L8.44219 3.80782C8.35478 3.72031 8.24337 3.6607 8.12207 3.63655C8.00076 3.61239 7.87502 3.62477 7.76076 3.67211C7.64649 3.71946 7.54884 3.79964 7.48017 3.90252C7.41151 4.00539 7.3749 4.12632 7.375 4.25V16.75C7.3749 16.8737 7.41151 16.9946 7.48017 17.0975C7.54884 17.2004 7.64649 17.2805 7.76076 17.3279C7.87502 17.3752 8.00076 17.3876 8.12207 17.3635C8.24337 17.3393 8.35478 17.2797 8.44219 17.1922L14.6922 10.9422C14.7503 10.8841 14.7964 10.8152 14.8279 10.7393C14.8593 10.6635 14.8755 10.5821 14.8755 10.5C14.8755 10.4179 14.8593 10.3365 14.8279 10.2607C14.7964 10.1848 14.7503 10.1159 14.6922 10.0578ZM8.625 15.2414V5.7586L13.3664 10.5L8.625 15.2414Z" fill="#212121"/>
</svg>
