<svg width="1440" height="162" viewBox="0 0 1440 162" fill="none" xmlns="http://www.w3.org/2000/svg">
<path d="M151.368 100.201L123.502 42.0383L96.3046 100.201H151.368ZM184.584 169.723L171.654 142.459H76.9099L64.203 169.723H0L82.0372 0.688477H167.195L253.914 169.723H184.584Z" fill="white" fill-opacity="0.1"/>
<path d="M326.682 0.688477V169.723H266.046V0.688477H326.682Z" fill="white" fill-opacity="0.1"/>
<path d="M451.201 169.723H399.928C378.675 169.723 368.049 158.136 368.049 134.962V84.9785H345.088V47.491H368.049V11.8211H428.24V47.491H451.201V84.9785H428.24V121.103C428.24 125.041 428.834 127.843 430.023 129.509C431.361 131.024 434.11 131.781 438.271 131.781H451.201V169.723Z" fill="white" fill-opacity="0.1"/>
<path d="M472.306 169.723V0.688477H532.942V68.8475C548.696 52.7923 569.205 44.7647 594.47 44.7647H595.808C606.508 44.7647 615.797 46.2793 623.674 49.3086C631.699 52.1864 637.867 56.0488 642.177 60.8956C646.487 65.591 649.608 70.5136 651.54 75.6634C653.62 80.6618 654.661 85.8116 654.661 91.1128V169.723H593.801V111.333C593.801 102.7 591.424 95.884 586.668 90.8856C582.061 85.7358 574.778 83.1609 564.821 83.1609C554.863 83.1609 547.061 85.8873 541.414 91.34C535.766 96.7928 532.942 103.987 532.942 112.924V169.723H472.306Z" fill="white" fill-opacity="0.1"/>
<path d="M769.125 74.0731C749.359 74.0731 737.841 80.2074 734.571 92.476H803.679C801.152 80.2074 789.634 74.0731 769.125 74.0731ZM863.869 125.192V125.647C863.869 129.736 863.349 133.599 862.308 137.234C861.268 140.869 858.89 145.034 855.175 149.73C851.459 154.274 846.555 158.212 840.462 161.544C834.368 164.725 825.674 167.451 814.379 169.723C803.233 171.995 790.229 173.131 775.367 173.131H763.552C749.433 173.131 736.949 171.843 726.1 169.269C715.251 166.694 706.631 163.361 700.24 159.272C693.85 155.182 688.648 150.335 684.635 144.731C680.623 138.976 677.873 133.371 676.387 127.919C675.05 122.315 674.381 116.407 674.381 110.197V105.653C674.381 64.6065 703.882 44.0831 762.883 44.0831H775.144C785.993 44.0831 795.802 44.8404 804.57 46.355C813.487 47.7182 820.993 49.6115 827.086 52.035C833.179 54.4584 838.455 57.4877 842.914 61.1228C847.521 64.758 851.162 68.4689 853.837 72.2555C856.512 75.8906 858.667 80.0559 860.302 84.7513C861.937 89.2953 862.977 93.612 863.423 97.7015C864.018 101.64 864.315 105.956 864.315 110.652V117.468H733.902C735.983 132.463 748.095 139.96 770.24 139.96H770.462C775.813 139.96 780.568 139.506 784.73 138.597C789.04 137.688 792.309 136.704 794.539 135.643C796.916 134.432 798.849 133.069 800.335 131.554C801.821 130.039 802.787 128.828 803.233 127.919C803.679 126.858 803.976 125.95 804.124 125.192H863.869Z" fill="white" fill-opacity="0.1"/>
<path d="M973.704 74.0731C953.938 74.0731 942.42 80.2074 939.15 92.476H1008.26C1005.73 80.2074 994.213 74.0731 973.704 74.0731ZM1068.45 125.192V125.647C1068.45 129.736 1067.93 133.599 1066.89 137.234C1065.85 140.869 1063.47 145.034 1059.75 149.73C1056.04 154.274 1051.13 158.212 1045.04 161.544C1038.95 164.725 1030.25 167.451 1018.96 169.723C1007.81 171.995 994.808 173.131 979.946 173.131H968.131C954.012 173.131 941.528 171.843 930.679 169.269C919.83 166.694 911.21 163.361 904.82 159.272C898.429 155.182 893.227 150.335 889.215 144.731C885.202 138.976 882.453 133.371 880.966 127.919C879.629 122.315 878.96 116.407 878.96 110.197V105.653C878.96 64.6065 908.461 44.0831 967.462 44.0831H979.723C990.572 44.0831 1000.38 44.8404 1009.15 46.355C1018.07 47.7182 1025.57 49.6115 1031.67 52.035C1037.76 54.4584 1043.03 57.4877 1047.49 61.1228C1052.1 64.758 1055.74 68.4689 1058.42 72.2555C1061.09 75.8906 1063.25 80.0559 1064.88 84.7513C1066.52 89.2953 1067.56 93.612 1068 97.7015C1068.6 101.64 1068.89 105.956 1068.89 110.652V117.468H938.482C940.562 132.463 952.675 139.96 974.819 139.96H975.042C980.392 139.96 985.148 139.506 989.309 138.597C993.619 137.688 996.889 136.704 999.118 135.643C1001.5 134.432 1003.43 133.069 1004.91 131.554C1006.4 130.039 1007.37 128.828 1007.81 127.919C1008.26 126.858 1008.56 125.95 1008.7 125.192H1068.45Z" fill="white" fill-opacity="0.1"/>
<path d="M1241.61 169.723H1083.77V136.552L1163.58 83.6153H1083.77V47.491H1241.38V79.9802L1159.12 132.235H1241.61V169.723Z" fill="white" fill-opacity="0.1"/>
<path d="M1279.72 212.436V174.721H1306.91C1310.63 174.721 1312.49 173.434 1312.49 170.859V170.632C1312.49 168.966 1310.78 164.876 1307.36 158.363L1250.73 47.491H1315.38L1348.82 126.101L1379.81 47.491H1440L1382.26 174.948C1376.32 188.126 1369.78 197.668 1362.64 203.575C1355.51 209.482 1346.67 212.436 1336.12 212.436H1279.72Z" fill="white" fill-opacity="0.1"/>
</svg>
