<svg width="393" height="47" viewBox="0 0 393 47" fill="none" xmlns="http://www.w3.org/2000/svg">
<path d="M41.3107 27.7621L33.7057 11.8886L26.2831 27.7621H41.3107ZM50.376 46.7358L46.8472 39.2951H20.99L17.5221 46.7358H0L22.3893 0.603516H45.6304L69.2974 46.7358H50.376Z" fill="white" fill-opacity="0.1"/>
<path d="M89.1571 0.603516V46.7358H72.6084V0.603516H89.1571Z" fill="white" fill-opacity="0.1"/>
<path d="M123.14 46.7358H109.147C103.347 46.7358 100.447 43.5735 100.447 37.249V23.6077H94.1802V13.3767H100.447V3.6418H116.874V13.3767H123.14V23.6077H116.874V33.4666C116.874 34.5414 117.036 35.3061 117.36 35.7608C117.726 36.1742 118.476 36.3809 119.612 36.3809H123.14V46.7358Z" fill="white" fill-opacity="0.1"/>
<path d="M128.9 46.7358V0.603516H145.449V19.2053C149.748 14.8235 155.346 12.6326 162.241 12.6326H162.606C165.526 12.6326 168.061 13.046 170.211 13.8728C172.401 14.6582 174.084 15.7123 175.261 17.0351C176.437 18.3165 177.289 19.66 177.816 21.0654C178.384 22.4296 178.668 23.835 178.668 25.2818V46.7358H162.058V30.8003C162.058 28.4441 161.409 26.584 160.111 25.2198C158.854 23.8144 156.867 23.1116 154.149 23.1116C151.431 23.1116 149.302 23.8557 147.761 25.3438C146.219 26.832 145.449 28.7955 145.449 31.2344V46.7358H128.9Z" fill="white" fill-opacity="0.1"/>
<path d="M209.907 20.6314C204.512 20.6314 201.369 22.3055 200.477 25.6539H219.337C218.648 22.3055 215.504 20.6314 209.907 20.6314ZM235.764 34.5827V34.7067C235.764 35.8228 235.622 36.8769 235.338 37.869C235.054 38.8611 234.405 39.9979 233.391 41.2793C232.377 42.5194 231.039 43.5942 229.376 44.5036C227.713 45.3717 225.34 46.1158 222.258 46.7358C219.216 47.3559 215.667 47.6659 211.611 47.6659H208.386C204.533 47.6659 201.126 47.3146 198.165 46.6118C195.204 45.9091 192.851 44.9997 191.107 43.8836C189.363 42.7675 187.944 41.4447 186.848 39.9152C185.753 38.3444 185.003 36.8149 184.597 35.3268C184.232 33.7973 184.05 32.1851 184.05 30.4903V29.2502C184.05 18.0478 192.101 12.4466 208.203 12.4466H211.55C214.511 12.4466 217.188 12.6533 219.581 13.0667C222.014 13.4387 224.063 13.9554 225.726 14.6168C227.389 15.2782 228.828 16.105 230.045 17.0971C231.303 18.0892 232.296 19.1019 233.026 20.1353C233.757 21.1274 234.345 22.2642 234.791 23.5457C235.237 24.7858 235.521 25.9639 235.643 27.08C235.805 28.1548 235.886 29.3329 235.886 30.6143V32.4745H200.294C200.862 36.5669 204.168 38.6131 210.211 38.6131H210.272C211.732 38.6131 213.03 38.4891 214.166 38.241C215.342 37.993 216.234 37.7243 216.843 37.435C217.492 37.1043 218.019 36.7322 218.425 36.3189C218.83 35.9055 219.094 35.5748 219.216 35.3268C219.337 35.0374 219.418 34.7894 219.459 34.5827H235.764Z" fill="white" fill-opacity="0.1"/>
<path d="M265.74 20.6314C260.346 20.6314 257.202 22.3055 256.31 25.6539H275.17C274.481 22.3055 271.337 20.6314 265.74 20.6314ZM291.597 34.5827V34.7067C291.597 35.8228 291.455 36.8769 291.171 37.869C290.888 38.8611 290.239 39.9979 289.225 41.2793C288.211 42.5194 286.872 43.5942 285.209 44.5036C283.546 45.3717 281.173 46.1158 278.091 46.7358C275.049 47.3559 271.5 47.6659 267.444 47.6659H264.219C260.366 47.6659 256.959 47.3146 253.998 46.6118C251.037 45.9091 248.684 44.9997 246.94 43.8836C245.196 42.7675 243.777 41.4447 242.682 39.9152C241.586 38.3444 240.836 36.8149 240.43 35.3268C240.065 33.7973 239.883 32.1851 239.883 30.4903V29.2502C239.883 18.0478 247.934 12.4466 264.037 12.4466H267.383C270.344 12.4466 273.021 12.6533 275.414 13.0667C277.847 13.4387 279.896 13.9554 281.559 14.6168C283.222 15.2782 284.661 16.105 285.878 17.0971C287.136 18.0892 288.129 19.1019 288.86 20.1353C289.59 21.1274 290.178 22.2642 290.624 23.5457C291.07 24.7858 291.354 25.9639 291.476 27.08C291.638 28.1548 291.719 29.3329 291.719 30.6143V32.4745H256.127C256.695 36.5669 260.001 38.6131 266.044 38.6131H266.105C267.565 38.6131 268.863 38.4891 269.999 38.241C271.175 37.993 272.068 37.7243 272.676 37.435C273.325 37.1043 273.852 36.7322 274.258 36.3189C274.663 35.9055 274.927 35.5748 275.049 35.3268C275.17 35.0374 275.251 34.7894 275.292 34.5827H291.597Z" fill="white" fill-opacity="0.1"/>
<path d="M338.855 46.7358H295.78V37.683L317.561 23.2356H295.78V13.3767H338.794V22.2435L316.344 36.5049H338.855V46.7358Z" fill="white" fill-opacity="0.1"/>
<path d="M349.256 58.3929V48.1H356.678C357.692 48.1 358.199 47.7486 358.199 47.0459V46.9839C358.199 46.5292 357.733 45.413 356.8 43.6355L341.346 13.3767H358.99L368.116 34.8307L376.573 13.3767H393L377.242 48.162C375.62 51.7583 373.835 54.3626 371.888 55.9747C369.941 57.5869 367.528 58.3929 364.648 58.3929H349.256Z" fill="white" fill-opacity="0.1"/>
</svg>
