<svg width="16" height="17" viewBox="0 0 16 17" fill="none" xmlns="http://www.w3.org/2000/svg">
<path opacity="0.2" d="M14.4825 8.71937L13.1425 13.6313C13.1137 13.737 13.051 13.8304 12.9639 13.8971C12.8768 13.9637 12.7703 13.9999 12.6606 14H11C10.8674 14 10.7402 13.9473 10.6464 13.8536C10.5527 13.7598 10.5 13.6326 10.5 13.5V12H5.5V13.5C5.5 13.6326 5.44732 13.7598 5.35355 13.8536C5.25979 13.9473 5.13261 14 5 14H3.33938C3.22974 13.9999 3.12318 13.9637 3.03611 13.8971C2.94904 13.8304 2.88628 13.737 2.8575 13.6313L1.5175 8.71937C1.49899 8.65074 1.49532 8.57895 1.50674 8.50879C1.51817 8.43863 1.54442 8.37171 1.58375 8.3125L4.5 3.9375L8 6L11.5 3.9375L14.4163 8.3125C14.4556 8.37171 14.4818 8.43863 14.4933 8.50879C14.5047 8.57895 14.501 8.65074 14.4825 8.71937Z" fill="#B0B0B0"/>
<path d="M14.8319 8.03312L11.4375 2.945C11.3464 2.80845 11.2231 2.69643 11.0784 2.61882C10.9338 2.54121 10.7723 2.50041 10.6081 2.5H5.39187C5.22772 2.50041 5.0662 2.54121 4.92155 2.61882C4.77691 2.69643 4.6536 2.80845 4.56249 2.945L1.16812 8.03312C1.08873 8.15205 1.03576 8.28661 1.0128 8.42774C0.989834 8.56888 0.997402 8.71329 1.03499 8.85125L2.37499 13.7631C2.4327 13.9747 2.55835 14.1614 2.73261 14.2946C2.90687 14.4277 3.12006 14.4999 3.33937 14.5H4.99999C5.26521 14.5 5.51956 14.3946 5.7071 14.2071C5.89464 14.0196 5.99999 13.7652 5.99999 13.5V12.5H9.99999V13.5C9.99999 13.7652 10.1054 14.0196 10.2929 14.2071C10.4804 14.3946 10.7348 14.5 11 14.5H12.6606C12.8799 14.4999 13.0931 14.4277 13.2674 14.2946C13.4416 14.1614 13.5673 13.9747 13.625 13.7631L14.965 8.85125C15.0026 8.71329 15.0102 8.56888 14.9872 8.42774C14.9642 8.28661 14.9113 8.15205 14.8319 8.03312ZM4.99999 11.5V4.8125L6.49999 5.69688V9C6.49999 9.13261 6.55267 9.25979 6.64644 9.35355C6.74021 9.44732 6.86738 9.5 6.99999 9.5C7.1326 9.5 7.25978 9.44732 7.35355 9.35355C7.44731 9.25979 7.49999 9.13261 7.49999 9V6.28562L7.74624 6.43062C7.82314 6.47591 7.91075 6.4998 7.99999 6.4998C8.08923 6.4998 8.17685 6.47591 8.25374 6.43062L8.49999 6.28562V8.5C8.49999 8.63261 8.55267 8.75979 8.64644 8.85355C8.74021 8.94732 8.86738 9 8.99999 9C9.1326 9 9.25978 8.94732 9.35355 8.85355C9.44732 8.75979 9.49999 8.63261 9.49999 8.5V5.69625L11 4.8125V11.5H4.99999ZM10.6081 3.5L10.7906 3.77437L7.99999 5.41937L5.20937 3.77437L5.39187 3.5H10.6081ZM4.99999 13.5H3.33937L1.99999 8.58813L3.99999 5.58813V11.5C3.99999 11.7652 4.10535 12.0196 4.29289 12.2071C4.48042 12.3946 4.73478 12.5 4.99999 12.5V13.5ZM12.6606 13.5H11V12.5C11.2652 12.5 11.5196 12.3946 11.7071 12.2071C11.8946 12.0196 12 11.7652 12 11.5V5.58813L14 8.58813L12.6606 13.5Z" fill="#B0B0B0"/>
</svg>
