<svg width="18" height="16" viewBox="0 0 18 16" fill="none" xmlns="http://www.w3.org/2000/svg">
<path d="M17.7806 7.46948L11.0306 0.719477C10.9257 0.614469 10.792 0.542943 10.6465 0.513955C10.5009 0.484968 10.35 0.499821 10.2129 0.556635C10.0758 0.61345 9.95861 0.70967 9.87621 0.833116C9.79381 0.956561 9.74988 1.10168 9.75 1.2501V7.2501H0.75C0.551088 7.2501 0.360322 7.32912 0.21967 7.46977C0.0790178 7.61043 0 7.80119 0 8.0001C0 8.19902 0.0790178 8.38978 0.21967 8.53043C0.360322 8.67109 0.551088 8.7501 0.75 8.7501H9.75V14.7501C9.74988 14.8985 9.79381 15.0436 9.87621 15.1671C9.95861 15.2905 10.0758 15.3868 10.2129 15.4436C10.35 15.5004 10.5009 15.5152 10.6465 15.4863C10.792 15.4573 10.9257 15.3857 11.0306 15.2807L17.7806 8.53073C17.8504 8.46107 17.9057 8.37836 17.9434 8.28731C17.9812 8.19626 18.0006 8.09866 18.0006 8.0001C18.0006 7.90154 17.9812 7.80395 17.9434 7.7129C17.9057 7.62185 17.8504 7.53913 17.7806 7.46948ZM11.25 12.9398V3.06041L16.1897 8.0001L11.25 12.9398Z" fill="white"/>
</svg>
