<svg width="16" height="16" viewBox="0 0 16 16" fill="none" xmlns="http://www.w3.org/2000/svg">
<path opacity="0.2" d="M11.5 7.5V11.3531C11.4999 11.4856 11.4473 11.6126 11.3538 11.7063L9.20688 13.8531C9.14118 13.9187 9.05855 13.9646 8.96821 13.9859C8.87788 14.0071 8.78341 14.0028 8.69539 13.9735C8.60736 13.9441 8.52925 13.8908 8.4698 13.8195C8.41034 13.7483 8.37189 13.6619 8.35875 13.57L8 11L11.5 7.5ZM8.5 4.5H4.64688C4.51444 4.50006 4.38745 4.55266 4.29375 4.64625L2.14688 6.79313C2.08133 6.85882 2.03536 6.94145 2.0141 7.03179C1.99285 7.12212 1.99716 7.21659 2.02654 7.30461C2.05593 7.39264 2.10923 7.47075 2.18049 7.5302C2.25174 7.58966 2.33814 7.62811 2.43 7.64125L5 8L8.5 4.5ZM2.5 13.5C4.85313 13.5 5.66813 12.2694 5.91 11.7388L4.26125 10.09C3.73063 10.3319 2.5 11.1469 2.5 13.5Z" fill="#212121"/>
<path d="M13.9906 2.94501C13.9758 2.70121 13.8723 2.47127 13.6996 2.29856C13.5269 2.12585 13.2969 2.02232 13.0531 2.00751C12.2669 1.96063 10.2575 2.03251 8.59 3.69938L8.29313 4.00001H4.6475C4.51568 3.99926 4.38502 4.02474 4.26313 4.07496C4.14124 4.12517 4.03055 4.19912 3.9375 4.29251L1.79375 6.43751C1.66228 6.56889 1.57003 6.73431 1.52734 6.9152C1.48466 7.0961 1.49324 7.28531 1.55211 7.46161C1.61098 7.6379 1.71782 7.7943 1.86064 7.91324C2.00345 8.03219 2.17659 8.10899 2.36063 8.13501L4.765 8.47063L7.52813 11.2338L7.86375 13.6394C7.88956 13.8234 7.96633 13.9966 8.0854 14.1393C8.20446 14.282 8.36106 14.3885 8.5375 14.4469C8.64027 14.4812 8.7479 14.4987 8.85625 14.4988C8.98745 14.499 9.1174 14.4733 9.23861 14.4231C9.35982 14.3729 9.4699 14.2992 9.5625 14.2063L11.7075 12.0625C11.8009 11.9695 11.8748 11.8588 11.9251 11.7369C11.9753 11.615 12.0007 11.4843 12 11.3525V7.70688L12.2981 7.40876C13.9656 5.74126 14.0375 3.73188 13.9906 2.94501ZM4.6475 5.00001H7.29313L4.8225 7.47001L2.5 7.14626L4.6475 5.00001ZM9.29813 4.40938C9.77858 3.92597 10.3567 3.55064 10.9937 3.30846C11.6308 3.06628 12.3122 2.96282 12.9925 3.00501C13.0363 3.68562 12.9339 4.36772 12.6922 5.00548C12.4506 5.64324 12.0751 6.22188 11.5913 6.70251L8 10.2925L5.7075 8.00001L9.29813 4.40938ZM11 11.3525L8.85438 13.5L8.53 11.1769L11 8.70688V11.3525ZM6.365 11.9463C6.08375 12.5625 5.14313 14 2.5 14C2.36739 14 2.24022 13.9473 2.14645 13.8536C2.05268 13.7598 2 13.6326 2 13.5C2 10.8569 3.4375 9.91626 4.05375 9.63438C4.1135 9.60713 4.17804 9.59192 4.24367 9.58961C4.3093 9.5873 4.37474 9.59794 4.43626 9.62092C4.49778 9.64391 4.55417 9.67878 4.60221 9.72356C4.65025 9.76833 4.689 9.82213 4.71625 9.88188C4.7435 9.94163 4.75871 10.0062 4.76102 10.0718C4.76333 10.1374 4.75269 10.2029 4.72971 10.2644C4.70673 10.3259 4.67185 10.3823 4.62708 10.4303C4.5823 10.4784 4.5285 10.5171 4.46875 10.5444C4.06688 10.7275 3.18 11.3169 3.02375 12.9763C4.68313 12.82 5.27375 11.9331 5.45563 11.5313C5.48288 11.4715 5.52163 11.4177 5.56967 11.3729C5.61771 11.3282 5.6741 11.2933 5.73562 11.2703C5.79714 11.2473 5.86258 11.2367 5.92821 11.239C5.99384 11.2413 6.05838 11.2565 6.11813 11.2838C6.17788 11.311 6.23168 11.3498 6.27645 11.3978C6.32123 11.4458 6.3561 11.5022 6.37909 11.5637C6.40207 11.6253 6.41271 11.6907 6.4104 11.7563C6.40809 11.822 6.39288 11.8865 6.36563 11.9463H6.365Z" fill="#212121"/>
</svg>
