<svg width="16" height="17" viewBox="0 0 16 17" fill="none" xmlns="http://www.w3.org/2000/svg">
<path opacity="0.2" d="M14 4V13C14 13.1326 13.9473 13.2598 13.8536 13.3536C13.7598 13.4473 13.6326 13.5 13.5 13.5H2.5C2.36739 13.5 2.24021 13.4473 2.14645 13.3536C2.05268 13.2598 2 13.1326 2 13V4C2 3.86739 2.05268 3.74021 2.14645 3.64645C2.24021 3.55268 2.36739 3.5 2.5 3.5H13.5C13.6326 3.5 13.7598 3.55268 13.8536 3.64645C13.9473 3.74021 14 3.86739 14 4Z" fill="#212121"/>
<path d="M13.5 3H2.5C2.23478 3 1.98043 3.10536 1.79289 3.29289C1.60536 3.48043 1.5 3.73478 1.5 4V13C1.5 13.2652 1.60536 13.5196 1.79289 13.7071C1.98043 13.8946 2.23478 14 2.5 14H13.5C13.7652 14 14.0196 13.8946 14.2071 13.7071C14.3946 13.5196 14.5 13.2652 14.5 13V4C14.5 3.73478 14.3946 3.48043 14.2071 3.29289C14.0196 3.10536 13.7652 3 13.5 3ZM13.5 13H2.5V4H13.5V13ZM11 6C11 6.79565 10.6839 7.55871 10.1213 8.12132C9.55871 8.68393 8.79565 9 8 9C7.20435 9 6.44129 8.68393 5.87868 8.12132C5.31607 7.55871 5 6.79565 5 6C5 5.86739 5.05268 5.74021 5.14645 5.64645C5.24021 5.55268 5.36739 5.5 5.5 5.5C5.63261 5.5 5.75979 5.55268 5.85355 5.64645C5.94732 5.74021 6 5.86739 6 6C6 6.53043 6.21071 7.03914 6.58579 7.41421C6.96086 7.78929 7.46957 8 8 8C8.53043 8 9.03914 7.78929 9.41421 7.41421C9.78929 7.03914 10 6.53043 10 6C10 5.86739 10.0527 5.74021 10.1464 5.64645C10.2402 5.55268 10.3674 5.5 10.5 5.5C10.6326 5.5 10.7598 5.55268 10.8536 5.64645C10.9473 5.74021 11 5.86739 11 6Z" fill="#212121"/>
</svg>
