<svg width="32" height="32" viewBox="0 0 32 32" fill="none" xmlns="http://www.w3.org/2000/svg">
<path opacity="0.2" d="M10.5337 21.4662L3.64749 18.9287C3.45761 18.8586 3.29377 18.732 3.17806 18.5659C3.06234 18.3999 3.00031 18.2023 3.00031 17.9999C3.00031 17.7975 3.06234 17.6 3.17806 17.4339C3.29377 17.2679 3.45761 17.1413 3.64749 17.0712L10.5337 14.5337L13.0712 7.64743C13.1413 7.45755 13.2679 7.29371 13.434 7.178C13.6 7.06228 13.7976 7.00024 14 7.00024C14.2024 7.00024 14.3999 7.06228 14.566 7.178C14.732 7.29371 14.8587 7.45755 14.9287 7.64743L17.4662 14.5337L24.3525 17.0712C24.5424 17.1413 24.7062 17.2679 24.8219 17.4339C24.9376 17.6 24.9997 17.7975 24.9997 17.9999C24.9997 18.2023 24.9376 18.3999 24.8219 18.5659C24.7062 18.732 24.5424 18.8586 24.3525 18.9287L17.4662 21.4662L14.9287 28.3524C14.8587 28.5423 14.732 28.7061 14.566 28.8219C14.3999 28.9376 14.2024 28.9996 14 28.9996C13.7976 28.9996 13.6 28.9376 13.434 28.8219C13.2679 28.7061 13.1413 28.5423 13.0712 28.3524L10.5337 21.4662Z" fill="#212121"/>
<path d="M10.5337 21.4662L3.64749 18.9287C3.45761 18.8586 3.29377 18.732 3.17806 18.5659C3.06234 18.3999 3.00031 18.2023 3.00031 17.9999C3.00031 17.7975 3.06234 17.6 3.17806 17.4339C3.29377 17.2679 3.45761 17.1413 3.64749 17.0712L10.5337 14.5337L13.0712 7.64743C13.1413 7.45755 13.2679 7.29371 13.434 7.178C13.6 7.06228 13.7976 7.00024 14 7.00024C14.2024 7.00024 14.3999 7.06228 14.566 7.178C14.732 7.29371 14.8587 7.45755 14.9287 7.64743L17.4662 14.5337L24.3525 17.0712C24.5424 17.1413 24.7062 17.2679 24.8219 17.4339C24.9376 17.6 24.9997 17.7975 24.9997 17.9999C24.9997 18.2023 24.9376 18.3999 24.8219 18.5659C24.7062 18.732 24.5424 18.8586 24.3525 18.9287L17.4662 21.4662L14.9287 28.3524C14.8587 28.5423 14.732 28.7061 14.566 28.8219C14.3999 28.9376 14.2024 28.9996 14 28.9996C13.7976 28.9996 13.6 28.9376 13.434 28.8219C13.2679 28.7061 13.1413 28.5423 13.0712 28.3524L10.5337 21.4662Z" stroke="#212121" stroke-width="2" stroke-linecap="round" stroke-linejoin="round"/>
<path d="M22 2V8" stroke="#212121" stroke-width="2" stroke-linecap="round" stroke-linejoin="round"/>
<path d="M28 9V13" stroke="#212121" stroke-width="2" stroke-linecap="round" stroke-linejoin="round"/>
<path d="M19 5H25" stroke="#212121" stroke-width="2" stroke-linecap="round" stroke-linejoin="round"/>
<path d="M26 11H30" stroke="#212121" stroke-width="2" stroke-linecap="round" stroke-linejoin="round"/>
</svg>
