<svg width="16" height="17" viewBox="0 0 16 17" fill="none" xmlns="http://www.w3.org/2000/svg">
<path opacity="0.2" d="M15.4444 5.42312L14.24 7.72375C14.1943 7.80804 14.1266 7.8783 14.044 7.92697C13.9614 7.97565 13.8671 8.00089 13.7712 8H12V3L15.2362 4.76562C15.3509 4.82531 15.4373 4.92806 15.4763 5.05133C15.5153 5.1746 15.5038 5.30831 15.4444 5.42312ZM0.5556 5.42312L1.75998 7.72375C1.80563 7.80804 1.8734 7.8783 1.95598 7.92697C2.03857 7.97565 2.13287 8.00089 2.22873 8H3.99998V3L0.763725 4.76562C0.649027 4.82531 0.562694 4.92806 0.523674 5.05133C0.484654 5.1746 0.496137 5.30831 0.5556 5.42312Z" fill="#212121"/>
<path d="M15.4744 4.32625L12.2394 2.5625C12.1661 2.52194 12.0838 2.50045 12 2.5H10C9.86739 2.5 9.74021 2.55268 9.64645 2.64645C9.55268 2.74021 9.5 2.86739 9.5 3C9.5 3.39782 9.34196 3.77936 9.06066 4.06066C8.77935 4.34196 8.39782 4.5 8 4.5C7.60217 4.5 7.22064 4.34196 6.93934 4.06066C6.65803 3.77936 6.5 3.39782 6.5 3C6.5 2.86739 6.44732 2.74021 6.35355 2.64645C6.25978 2.55268 6.13261 2.5 6 2.5H4C3.91602 2.50035 3.83348 2.52184 3.76 2.5625L0.525624 4.32625C0.295063 4.4481 0.122228 4.6564 0.0450184 4.90549C-0.0321913 5.15457 -0.00747434 5.42411 0.113749 5.655L1.31812 7.95563C1.4057 8.12103 1.53696 8.25925 1.69763 8.35523C1.8583 8.45121 2.04222 8.50129 2.22937 8.5H3.5V13.5C3.5 13.7652 3.60536 14.0196 3.79289 14.2071C3.98043 14.3946 4.23478 14.5 4.5 14.5H11.5C11.7652 14.5 12.0196 14.3946 12.2071 14.2071C12.3946 14.0196 12.5 13.7652 12.5 13.5V8.5H13.7712C13.9584 8.50129 14.1423 8.45121 14.303 8.35523C14.4637 8.25925 14.5949 8.12103 14.6825 7.95563L15.8869 5.655C16.0081 5.42403 16.0327 5.15444 15.9553 4.90534C15.878 4.65624 15.705 4.44799 15.4744 4.32625ZM2.22937 7.5C2.22014 7.50044 2.21105 7.49755 2.20375 7.49188L1.00562 5.20375L3.5 3.8425V7.5H2.22937ZM11.5 13.5H4.5V3.5H5.55C5.66536 4.06447 5.97214 4.57178 6.41846 4.93611C6.86478 5.30044 7.42323 5.49944 7.99937 5.49944C8.57551 5.49944 9.13397 5.30044 9.58029 4.93611C10.0266 4.57178 10.3334 4.06447 10.4487 3.5H11.5V13.5ZM13.7969 7.49125C13.7934 7.49437 13.7894 7.49675 13.785 7.49825C13.7806 7.49976 13.7759 7.50035 13.7712 7.5H12.5V3.8425L14.995 5.20375L13.7969 7.49125Z" fill="#212121"/>
</svg>
