<svg width="17" height="17" viewBox="0 0 17 17" fill="none" xmlns="http://www.w3.org/2000/svg">
<path opacity="0.2" d="M14 3.5H3C2.86739 3.5 2.74021 3.55268 2.64645 3.64645C2.55268 3.74021 2.5 3.86739 2.5 4V11C2.5 11.1326 2.55268 11.2598 2.64645 11.3536C2.74021 11.4473 2.86739 11.5 3 11.5H14C14.1326 11.5 14.2598 11.4473 14.3536 11.3536C14.4473 11.2598 14.5 11.1326 14.5 11V4C14.5 3.86739 14.4473 3.74021 14.3536 3.64645C14.2598 3.55268 14.1326 3.5 14 3.5ZM7.5 9.5V5.5L10.5 7.5L7.5 9.5Z" fill="#212121"/>
<path d="M10.7775 7.08375L7.7775 5.08375C7.70218 5.0335 7.61463 5.00464 7.5242 5.00026C7.43376 4.99588 7.34383 5.01614 7.26401 5.05887C7.18418 5.10161 7.11746 5.16521 7.07097 5.24291C7.02447 5.3206 6.99994 5.40946 7 5.5V9.5C6.99994 9.59054 7.02447 9.6794 7.07097 9.75709C7.11746 9.83478 7.18418 9.89839 7.26401 9.94113C7.34383 9.98386 7.43376 10.0041 7.5242 9.99974C7.61463 9.99536 7.70218 9.9665 7.7775 9.91625L10.7775 7.91625C10.8461 7.87061 10.9023 7.80873 10.9412 7.73611C10.9801 7.66349 11.0005 7.58238 11.0005 7.5C11.0005 7.41762 10.9801 7.33651 10.9412 7.26389C10.9023 7.19127 10.8461 7.12939 10.7775 7.08375ZM8 8.56563V6.4375L9.59875 7.5L8 8.56563ZM14 3H3C2.73478 3 2.48043 3.10536 2.29289 3.29289C2.10536 3.48043 2 3.73478 2 4V11C2 11.2652 2.10536 11.5196 2.29289 11.7071C2.48043 11.8946 2.73478 12 3 12H14C14.2652 12 14.5196 11.8946 14.7071 11.7071C14.8946 11.5196 15 11.2652 15 11V4C15 3.73478 14.8946 3.48043 14.7071 3.29289C14.5196 3.10536 14.2652 3 14 3ZM14 11H3V4H14V11ZM15 13.5C15 13.6326 14.9473 13.7598 14.8536 13.8536C14.7598 13.9473 14.6326 14 14.5 14H2.5C2.36739 14 2.24021 13.9473 2.14645 13.8536C2.05268 13.7598 2 13.6326 2 13.5C2 13.3674 2.05268 13.2402 2.14645 13.1464C2.24021 13.0527 2.36739 13 2.5 13H14.5C14.6326 13 14.7598 13.0527 14.8536 13.1464C14.9473 13.2402 15 13.3674 15 13.5Z" fill="#212121"/>
</svg>
